<svg xmlns="http://www.w3.org/2000/svg" version="1.1" xmlns:xlink="http://www.w3.org/1999/xlink" xmlns:svgjs="http://svgjs.com/svgjs" width="1440" height="560" preserveAspectRatio="none" viewBox="0 0 1440 560"><g mask="url(&quot;#SvgjsMask1000&quot;)" fill="none"><rect width="1440" height="560" x="0" y="0" fill="#0e2a47"></rect><path d="M0,496.361C101.924,504.39,211.06,517.418,298.872,465.053C387.576,412.156,424.609,307.354,471.372,215.268C520.122,119.268,598.821,22.485,577.174,-82.985C555.597,-188.112,452.82,-256.019,362.687,-314.27C288.539,-362.19,194.223,-349.775,112.538,-383.268C17.157,-422.377,-55.044,-553.288,-154.551,-526.352C-253.378,-499.6,-247.592,-349.804,-310.24,-268.824C-367.859,-194.344,-476.608,-162.301,-505.517,-72.682C-535.606,20.595,-507.783,124.166,-465.54,212.605C-423.723,300.151,-352.914,369.743,-270.07,420.238C-188.554,469.924,-95.17,488.864,0,496.361" fill="#0b2239"></path><path d="M1440 1037.546C1527.047 1011.0840000000001 1542.948 888.472 1619.535 839.361 1696.253 790.1659999999999 1828.328 836.943 1874.952 758.636 1920.084 682.835 1843.378 590.18 1818.246 505.616 1796.974 434.039 1792.97 352.507 1738.936 300.97 1686.271 250.73899999999998 1600.737 267.389 1535.229 235.67899999999997 1450.867 194.84199999999998 1395.358 83.57799999999997 1301.811 89.37099999999998 1210.683 95.01499999999999 1151.208 189.325 1097.032 262.817 1045.975 332.078 997.617 410.97 1001.367 496.93399999999997 1004.928 578.575 1088.788 630.867 1116.44 707.765 1147.896 795.242 1108.176 908.6659999999999 1173.281 975.0219999999999 1238.556 1041.5520000000001 1350.826 1064.655 1440 1037.546" fill="#113255"></path></g><defs><mask id="SvgjsMask1000"><rect width="1440" height="560" fill="#ffffff"></rect></mask></defs></svg>